<svg width="317" height="130" viewBox="0 0 317 130" fill="none" xmlns="http://www.w3.org/2000/svg">
<path d="M85.6627 55.7143C88.0581 55.7143 90 57.6707 90 60.084V99.4118C90 102.73 87.3299 105.42 84.0361 105.42C80.7424 105.42 78.0723 102.73 78.0723 99.4118V93.1303C78.0723 89.3594 75.0381 86.3025 71.2952 86.3025C67.5523 86.3025 64.5181 89.3594 64.5181 93.1303V111.702C64.5181 115.171 61.7266 117.983 58.2831 117.983C54.8397 117.983 52.0482 115.171 52.0482 111.702V95.3151C52.0482 91.5443 49.014 88.4874 45.2711 88.4874C41.5282 88.4874 38.494 91.5443 38.494 95.3151V123.718C38.494 127.188 35.7025 130 32.259 130C28.8156 130 26.0241 127.188 26.0241 123.718V82.7521C26.0241 78.9813 22.9899 75.9244 19.247 75.9244C15.5041 75.9244 12.4699 78.9813 12.4699 82.7521V116.618C12.4699 120.087 9.6784 122.899 6.23494 122.899C2.79148 122.899 0 120.087 0 116.618V60.084C0 57.6707 1.9419 55.7143 4.33735 55.7143H85.6627Z" fill="white"/>
<path d="M92.1687 25.3992C92.1687 39.4267 80.8814 50.7983 66.9578 50.7983C53.0343 50.7983 41.747 39.4267 41.747 25.3992C41.747 11.3716 53.0343 0 66.9578 0C80.8814 0 92.1687 11.3716 92.1687 25.3992Z" fill="white"/>
<path d="M34.6988 33.3193C34.6988 42.9727 26.9312 50.7983 17.3494 50.7983C7.76759 50.7983 0 42.9727 0 33.3193C0 23.6659 7.76759 15.8403 17.3494 15.8403C26.9312 15.8403 34.6988 23.6659 34.6988 33.3193Z" fill="white"/>
<path d="M95.9639 76.3776V65.3721C95.9639 62.5106 97.5496 59.8885 100.074 58.5764L123.929 46.1753C128.981 43.5491 135 47.2438 135 52.971V88.961C135 94.7083 128.943 98.4015 123.889 95.7357L100.033 83.1522C97.5316 81.8325 95.9639 79.2227 95.9639 76.3776Z" fill="white"/>
<path d="M181.528 54.832H166.264L162.856 64H157.192L170.584 29.728H177.256L190.696 64H184.936L181.528 54.832ZM179.848 50.368L173.992 34.528H173.8L167.896 50.368H179.848ZM197.803 54.544V64H192.907V29.248H197.803V48.928L208.123 38.704H214.267L204.331 48.4L215.371 64H209.515L200.875 51.568L197.803 54.544ZM233.29 60.688H233.098C231.13 63.52 228.298 64.624 225.178 64.624C220.618 64.624 216.202 61.888 216.202 55.504V38.704H221.146V54.016C221.146 58.768 223.114 60.496 226.714 60.496C229.93 60.496 233.05 57.808 233.05 52.624V38.704H237.946V64H233.29V60.688ZM246.453 38.704V42.544H246.645C247.893 40.096 250.533 38.128 254.181 38.128C254.949 38.128 255.813 38.224 256.389 38.368V43.072C255.765 42.976 254.853 42.88 253.941 42.88C249.765 42.88 246.693 44.896 246.693 50.56V64H241.797V38.704H246.453ZM279.8 64H275.048C274.664 63.616 274.28 62.32 274.28 60.64C272.552 63.472 268.76 64.576 265.736 64.576C261.176 64.576 257.336 61.696 257.336 57.04C257.336 51.568 261.368 49.552 268.136 48.88C272.984 48.4 274.232 47.536 274.232 45.952C274.232 43.696 272.744 42.112 268.904 42.112C266.312 42.112 263.72 43.408 262.808 46.384L258.344 45.376C259.448 40.816 263.672 38.128 269.096 38.128C276.44 38.128 279.128 41.584 279.128 45.856V58.576C279.128 61.408 279.176 62.848 279.8 64ZM274.232 54.016V50.992C273.416 51.856 270.44 52.288 267.608 52.624C264.968 52.96 262.376 54.208 262.376 57.04C262.376 59.44 264.008 60.736 266.696 60.736C270.008 60.736 274.232 58.864 274.232 54.016ZM287.61 38.704V42.544H287.802C289.05 40.096 291.69 38.128 295.338 38.128C296.106 38.128 296.97 38.224 297.546 38.368V43.072C296.922 42.976 296.01 42.88 295.098 42.88C290.922 42.88 287.85 44.896 287.85 50.56V64H282.954V38.704H287.61ZM310.851 59.872C311.427 59.872 312.579 59.872 313.251 59.824V64C312.723 64.048 310.898 64.096 309.651 64.096C305.187 64.096 303.123 63.04 303.123 58.528V42.352H298.947V38.704H303.123V31.504H308.019V38.704H313.539V42.352H308.019V57.232C308.019 59.584 308.931 59.872 310.851 59.872Z" fill="white"/>
<path d="M184.312 99.096L189.592 99.912C188.392 105.48 183.592 111.768 174.664 111.768C165.112 111.768 158.536 104.952 158.536 93.816C158.536 82.824 165.112 76.008 174.664 76.008C182.632 76.008 187.384 81.192 188.968 85.512L183.832 86.664C182.536 83.304 179.416 80.424 174.664 80.424C168.04 80.424 163.912 85.416 163.912 93.816C163.912 102.36 168.04 107.352 174.664 107.352C180.376 107.352 183.304 103.368 184.312 99.096ZM192.814 76.248H197.758V81.576H192.814V76.248ZM192.862 85.704H197.758V111H192.862V85.704ZM206.563 89.016H206.755C208.675 86.232 211.507 85.128 214.627 85.128C219.235 85.128 223.603 87.816 223.603 94.2V111H218.707V95.688C218.707 90.936 216.739 89.208 213.091 89.208C209.875 89.208 206.803 91.896 206.803 97.08V111H201.907V85.704H206.563V89.016ZM245.31 103.032L250.254 103.656C249.102 107.304 246.03 111.624 238.59 111.624C231.438 111.624 226.638 106.296 226.638 98.424C226.638 90.408 231.294 85.128 238.542 85.128C245.886 85.128 251.07 90.456 250.398 99.528H231.63C231.773 104.136 234.366 107.64 238.59 107.64C242.958 107.64 244.686 104.856 245.31 103.032ZM238.542 89.064C234.27 89.064 232.11 92.28 231.726 95.784H245.454C245.07 92.28 242.862 89.064 238.542 89.064ZM281.83 85.128C286.054 85.128 290.278 87.816 290.278 94.2V111H285.382V95.688C285.382 90.936 283.51 89.208 280.198 89.208C277.27 89.208 274.438 91.896 274.438 97.08V111H269.542V95.688C269.542 90.936 267.67 89.208 264.406 89.208C261.43 89.208 258.646 91.896 258.646 97.08V111H253.75V85.704H258.406V89.064H258.598C260.518 86.28 263.158 85.128 265.99 85.128C268.87 85.128 271.798 86.376 273.334 89.256C275.59 86.52 278.086 85.128 281.83 85.128ZM315.613 111H310.861C310.477 110.616 310.093 109.32 310.093 107.64C308.365 110.472 304.573 111.576 301.549 111.576C296.989 111.576 293.149 108.696 293.149 104.04C293.149 98.568 297.181 96.552 303.949 95.88C308.797 95.4 310.045 94.536 310.045 92.952C310.045 90.696 308.557 89.112 304.717 89.112C302.125 89.112 299.533 90.408 298.621 93.384L294.157 92.376C295.261 87.816 299.485 85.128 304.909 85.128C312.253 85.128 314.941 88.584 314.941 92.856V105.576C314.941 108.408 314.989 109.848 315.613 111ZM310.045 101.016V97.992C309.229 98.856 306.253 99.288 303.421 99.624C300.781 99.96 298.189 101.208 298.189 104.04C298.189 106.44 299.821 107.736 302.509 107.736C305.821 107.736 310.045 105.864 310.045 101.016Z" fill="white"/>
</svg>
