<svg width="195" height="188" viewBox="0 0 195 188" fill="none" xmlns="http://www.w3.org/2000/svg">
<path d="M123.735 80.5714C127.195 80.5714 130 83.4007 130 86.8908V143.765C130 148.564 126.143 152.454 121.386 152.454C116.628 152.454 112.771 148.564 112.771 143.765V134.681C112.771 129.227 108.388 124.807 102.982 124.807C97.5755 124.807 93.1928 129.227 93.1928 134.681V161.538C93.1928 166.555 89.1606 170.622 84.1867 170.622C79.2129 170.622 75.1807 166.555 75.1807 161.538V137.84C75.1807 132.387 70.798 127.966 65.3916 127.966C59.9852 127.966 55.6024 132.387 55.6024 137.84V178.916C55.6024 183.933 51.5703 188 46.5964 188C41.6225 188 37.5904 183.933 37.5904 178.916V119.672C37.5904 114.219 33.2076 109.798 27.8012 109.798C22.3948 109.798 18.012 114.219 18.012 119.672V168.647C18.012 173.664 13.9799 177.731 9.00602 177.731C4.03213 177.731 0 173.664 0 168.647V86.8908C0 83.4007 2.80496 80.5714 6.26506 80.5714H123.735Z" fill="white"/>
<path d="M133.133 36.7311C133.133 57.0171 116.829 73.4622 96.7169 73.4622C76.6051 73.4622 60.3012 57.0171 60.3012 36.7311C60.3012 16.4451 76.6051 0 96.7169 0C116.829 0 133.133 16.4451 133.133 36.7311Z" fill="white"/>
<path d="M50.1205 48.1849C50.1205 62.1451 38.9006 73.4622 25.0602 73.4622C11.2199 73.4622 0 62.1451 0 48.1849C0 34.2246 11.2199 22.9076 25.0602 22.9076C38.9006 22.9076 50.1205 34.2246 50.1205 48.1849Z" fill="white"/>
<path d="M138.614 110.454V94.5381C138.614 90.3999 140.905 86.608 144.551 84.7104L179.009 66.7766C186.306 62.9787 195 68.3218 195 76.6042V128.651C195 136.963 186.251 142.304 178.951 138.448L144.493 120.251C140.879 118.342 138.614 114.568 138.614 110.454Z" fill="white"/>
</svg>
